<svg xmlns="http://www.w3.org/2000/svg" viewBox="0 0 332.22 68.31"><defs><style>.cls-1{fill:#0073bd;}.cls-2{fill:#fff;}</style></defs><g id="Layer_2" data-name="Layer 2"><g id="Layer_1-2" data-name="Layer 1"><path class="cls-1" d="M298.07,68.31H34.15A34.16,34.16,0,0,1,34.15,0H298.07a34.16,34.16,0,0,1,0,68.31Z"/><path class="cls-2" d="M54,42.65H50.72V26.33H54v6.25h6.7V26.33h3.26V42.65H60.68V35.8H54Z"/><path class="cls-2" d="M67,36.54A6.76,6.76,0,0,1,68.53,32a4.93,4.93,0,0,1,3.9-1.81A4.51,4.51,0,0,1,76.16,32a7.17,7.17,0,0,1,1.43,4.59c0,.19,0,.37,0,.54s0,.33,0,.49H70.22a2.32,2.32,0,0,0,.76,1.7,2.51,2.51,0,0,0,1.76.61,3.16,3.16,0,0,0,1.2-.22,2.35,2.35,0,0,0,.9-.64l2.28,1.91a4.75,4.75,0,0,1-1.9,1.44,6,6,0,0,1-2.48.54,5.38,5.38,0,0,1-4.2-1.72A6.69,6.69,0,0,1,67,36.54ZM72.27,33a1.74,1.74,0,0,0-1.36.61,2.67,2.67,0,0,0-.65,1.58h4.2a2.55,2.55,0,0,0-.67-1.59A2,2,0,0,0,72.27,33Z"/><path class="cls-2" d="M97.7,35.75v6.9H94.48V36A4,4,0,0,0,94,33.84a1.68,1.68,0,0,0-1.51-.66,1.74,1.74,0,0,0-1.53.65A3.8,3.8,0,0,0,90.53,36v6.69H87.32V36a4,4,0,0,0-.45-2.19,1.68,1.68,0,0,0-1.51-.66,1.74,1.74,0,0,0-1.53.65A3.72,3.72,0,0,0,83.37,36v6.69H80.15V30.41h3.22v.82a3.32,3.32,0,0,1,1.19-.81,4,4,0,0,1,1.5-.27A4.66,4.66,0,0,1,88,30.5a4.16,4.16,0,0,1,1.47,1.22,4.85,4.85,0,0,1,1.75-1.22,6,6,0,0,1,2.14-.35,3.9,3.9,0,0,1,3.28,1.4A6.8,6.8,0,0,1,97.7,35.75Z"/><path class="cls-2" d="M110.66,34.44v8.21h-3.21v-.81a3.42,3.42,0,0,1-1.22.78,4.29,4.29,0,0,1-1.54.29,4.65,4.65,0,0,1-3.28-1.19,4.1,4.1,0,0,1-1.29-3.17,3.6,3.6,0,0,1,1.35-3,5.6,5.6,0,0,1,3.62-1.09,6.33,6.33,0,0,1,1.28.12,4.17,4.17,0,0,1,1.08.37v-.61a1.49,1.49,0,0,0-.47-1.13,1.85,1.85,0,0,0-1.28-.43,7.42,7.42,0,0,0-1.77.18,6.94,6.94,0,0,0-1.59.64l-1.24-2.24a8.2,8.2,0,0,1,4.6-1.24,5.32,5.32,0,0,1,3.63,1.15A3.91,3.91,0,0,1,110.66,34.44Zm-5.45,5.74a2.86,2.86,0,0,0,1.33-.31,2.33,2.33,0,0,0,.91-.81V37.52a3.46,3.46,0,0,0-1-.39,5.64,5.64,0,0,0-1.27-.12,2.1,2.1,0,0,0-1.39.4,1.38,1.38,0,0,0-.48,1.14,1.54,1.54,0,0,0,.48,1.2A2,2,0,0,0,105.21,40.18Z"/><path class="cls-2" d="M119.16,39.83a1.66,1.66,0,0,0,.8-.2,5.46,5.46,0,0,0,1-.73l-.46,3.26a3.38,3.38,0,0,1-1.11.54,4.73,4.73,0,0,1-1.39.21,3,3,0,0,1-2.37-1,4,4,0,0,1-.89-2.66V33.44h-2.06v-3h2.06V27.26L118,25.65v4.76h2.93v3H118v4.92a1.83,1.83,0,0,0,.26,1.13A1.11,1.11,0,0,0,119.16,39.83Z"/><path class="cls-2" d="M122.86,36.54A6.71,6.71,0,0,1,124.43,32a5.29,5.29,0,0,1,7.95,0,6.76,6.76,0,0,1,1.56,4.59,6.72,6.72,0,0,1-1.56,4.59,5.35,5.35,0,0,1-8,0A6.76,6.76,0,0,1,122.86,36.54Zm3.27,0a4.27,4.27,0,0,0,.59,2.41,1.93,1.93,0,0,0,1.67.86,1.91,1.91,0,0,0,1.67-.91,4.14,4.14,0,0,0,.62-2.36,4.14,4.14,0,0,0-.61-2.4,2,2,0,0,0-3.35,0A4.29,4.29,0,0,0,126.13,36.54Z"/><path class="cls-2" d="M139.77,25.65v17h-3.21V27.26Z"/><path class="cls-2" d="M142.39,36.54A6.76,6.76,0,0,1,144,32a5.29,5.29,0,0,1,8,0,6.71,6.71,0,0,1,1.57,4.59,6.68,6.68,0,0,1-1.57,4.59,5.34,5.34,0,0,1-8,0A6.72,6.72,0,0,1,142.39,36.54Zm3.26,0a4.19,4.19,0,0,0,.6,2.41,2,2,0,0,0,3.33-.05,4.06,4.06,0,0,0,.62-2.36,4.14,4.14,0,0,0-.61-2.4,1.92,1.92,0,0,0-1.68-.89,1.9,1.9,0,0,0-1.66.88A4.21,4.21,0,0,0,145.65,36.54Z"/><path class="cls-2" d="M162.68,30.41h3.22V40.58q0,3.41-1.19,4.84a5.89,5.89,0,0,1-4.08,1.74l-1.15-2.43a5.05,5.05,0,0,0,2.55-.84,2.61,2.61,0,0,0,.65-2,4.33,4.33,0,0,1-1.22.76,3.52,3.52,0,0,1-1.37.26,4.11,4.11,0,0,1-3.49-1.71,8,8,0,0,1-1.27-4.82,7.31,7.31,0,0,1,1.29-4.54,4.14,4.14,0,0,1,3.47-1.69,4,4,0,0,1,1.42.26,3.61,3.61,0,0,1,1.17.7Zm-2,9.47a2.39,2.39,0,0,0,1.08-.23,3,3,0,0,0,.9-.8V34.23a2.55,2.55,0,0,0-.92-.78,2.8,2.8,0,0,0-1.25-.27,1.56,1.56,0,0,0-1.42.81,4.47,4.47,0,0,0-.49,2.32,5.41,5.41,0,0,0,.53,2.66A1.71,1.71,0,0,0,160.7,39.88Z"/><path class="cls-2" d="M177.24,30.41h3.45L174.39,47h-3.17l1.63-4.32-4.76-12.24h3.55l2,5.9c.14.4.29.86.44,1.38s.26,1,.36,1.3c.07-.31.19-.72.33-1.23s.3-1,.46-1.45Z"/><path class="cls-2" d="M190.13,26.33h7.14a5.86,5.86,0,0,1,4.08,1.38,4.85,4.85,0,0,1,1.54,3.8,5.05,5.05,0,0,1-1.54,4A6.26,6.26,0,0,1,197,36.87H193.4v5.78h-3.27Zm3.27,7.37h3.8a2.49,2.49,0,0,0,1.75-.54,2.06,2.06,0,0,0,.58-1.59,1.91,1.91,0,0,0-.61-1.53,2.61,2.61,0,0,0-1.76-.54H193.4Z"/><path class="cls-2" d="M204.34,36.54A6.76,6.76,0,0,1,205.9,32a5.3,5.3,0,0,1,8,0,6.76,6.76,0,0,1,1.56,4.59,6.72,6.72,0,0,1-1.56,4.59,5.35,5.35,0,0,1-8,0A6.76,6.76,0,0,1,204.34,36.54Zm3.26,0a4.19,4.19,0,0,0,.6,2.41,2,2,0,0,0,3.34-.05,4.14,4.14,0,0,0,.61-2.36,4.22,4.22,0,0,0-.6-2.4,1.94,1.94,0,0,0-1.68-.89,1.92,1.92,0,0,0-1.67.88A4.21,4.21,0,0,0,207.6,36.54Z"/><path class="cls-2" d="M223.65,30.15a3.52,3.52,0,0,1,1.29.24,2.41,2.41,0,0,1,1,.63l-.83,3.14a3,3,0,0,0-.9-.59,2.55,2.55,0,0,0-1-.2,1.88,1.88,0,0,0-1.6.63,3.39,3.39,0,0,0-.48,2v6.62h-3.22V30.41h3.22v.82a3.55,3.55,0,0,1,1.15-.81A3.45,3.45,0,0,1,223.65,30.15Z"/><path class="cls-2" d="M233.8,39.83a1.61,1.61,0,0,0,.8-.2,5.46,5.46,0,0,0,1-.73l-.47,3.26a3.38,3.38,0,0,1-1.11.54,4.72,4.72,0,0,1-1.38.21,3,3,0,0,1-2.37-1,3.91,3.91,0,0,1-.9-2.66V33.44h-2v-3h2V27.26l3.22-1.61v4.76h2.94v3h-2.94v4.92a1.82,1.82,0,0,0,.27,1.13A1.09,1.09,0,0,0,233.8,39.83Z"/><path class="cls-2" d="M242.31,25.72a6.36,6.36,0,0,1,1.1.09,5.69,5.69,0,0,1,.93.26v2.59a2.48,2.48,0,0,0-.53-.2,2.68,2.68,0,0,0-.59-.06,1.54,1.54,0,0,0-.92.21.93.93,0,0,0-.27.77v1h2.08v3H242v9.21h-3.22V33.44h-1.47v-3h1.47V28.94a3.13,3.13,0,0,1,.87-2.43A3.76,3.76,0,0,1,242.31,25.72Z"/><path class="cls-2" d="M245.49,36.54A6.76,6.76,0,0,1,247.05,32,5.29,5.29,0,0,1,255,32a6.76,6.76,0,0,1,1.57,4.59A6.73,6.73,0,0,1,255,41.13a5.34,5.34,0,0,1-8,0A6.72,6.72,0,0,1,245.49,36.54Zm3.26,0a4.19,4.19,0,0,0,.6,2.41,2,2,0,0,0,3.33-.05,4.14,4.14,0,0,0,.62-2.36,4.14,4.14,0,0,0-.61-2.4,1.92,1.92,0,0,0-1.68-.89,1.9,1.9,0,0,0-1.66.88A4.21,4.21,0,0,0,248.75,36.54Z"/><path class="cls-2" d="M262.4,25.65v17h-3.22V27.26Z"/><path class="cls-2" d="M265.52,27.56a1.88,1.88,0,0,1,1.85-1.84,1.76,1.76,0,0,1,1.29.55,1.79,1.79,0,0,1,.55,1.29,1.85,1.85,0,0,1-3.69,0ZM269,30.41V42.65h-3.21V30.41Z"/><path class="cls-2" d="M271.59,36.54A6.76,6.76,0,0,1,273.15,32a5.29,5.29,0,0,1,8,0,6.71,6.71,0,0,1,1.57,4.59,6.68,6.68,0,0,1-1.57,4.59,5.34,5.34,0,0,1-8,0A6.72,6.72,0,0,1,271.59,36.54Zm3.26,0a4.19,4.19,0,0,0,.6,2.41,2,2,0,0,0,3.33-.05,4.14,4.14,0,0,0,.62-2.36,4.14,4.14,0,0,0-.61-2.4,2,2,0,0,0-3.34,0A4.21,4.21,0,0,0,274.85,36.54Z"/></g></g></svg>