<svg xmlns="http://www.w3.org/2000/svg" xmlns:xlink="http://www.w3.org/1999/xlink" viewBox="0 0 240 85.65"><defs><style>.cls-1{fill:none;}.cls-2{clip-path:url(#clip-path);}.cls-3{fill:#787878;}.cls-4{fill:#004c97;}.cls-5{fill:#d31c5a;}.cls-6{clip-path:url(#clip-path-2);}.cls-7{fill:url(#linear-gradient);}</style><clipPath id="clip-path" transform="translate(0 0)"><rect class="cls-1" width="240" height="85.65"/></clipPath><clipPath id="clip-path-2" transform="translate(0 0)"><path class="cls-1" d="M16.94,24.14C10.38,26.37,3.59,31.26,1.38,38.47.37,41.72,0,46.61,2.81,48.84c0,0,.64.42.78.49a8.56,8.56,0,0,1,.08-1.72,29.38,29.38,0,0,1,6.51-13.38,36.18,36.18,0,0,1,11.34-9.17c-5.25,3.28-7.91,8.51-11.3,14A38.51,38.51,0,0,0,6.05,50.71a17.68,17.68,0,0,0-.16,2.71c.12,7.31,2.92,12.41,9.45,15,8,3.19,13.62.77,17-1.55a19.39,19.39,0,0,1-13.37-1c-6.87-3.38-8.83-8.38-8.19-11.91,1.93.53,3.52-.13,5.15-.82,3.33-1.41,5.25-4.35,6.42-7.45S23.49,39,23.64,35.63a39.61,39.61,0,0,1,.71-7.83,9.93,9.93,0,0,1,1.46-3.46C26.06,24,26.9,23,27.43,23a12.53,12.53,0,0,0-2.88-.32,24.34,24.34,0,0,0-7.61,1.46"/></clipPath><linearGradient id="linear-gradient" x1="447.46" y1="2238.21" x2="448.96" y2="2238.21" gradientTransform="matrix(21.16, 0, 0, -21.16, -9467.71, 47408.21)" gradientUnits="userSpaceOnUse"><stop offset="0" stop-color="#006838"/><stop offset="0.05" stop-color="#1c7a40"/><stop offset="0.13" stop-color="#3f914b"/><stop offset="0.22" stop-color="#5da453"/><stop offset="0.31" stop-color="#76b45b"/><stop offset="0.41" stop-color="#89c060"/><stop offset="0.54" stop-color="#96c964"/><stop offset="0.69" stop-color="#9ece66"/><stop offset="1" stop-color="#a0cf67"/></linearGradient></defs><g id="Layer_2" data-name="Layer 2"><g id="Layer_1-2" data-name="Layer 1"><g class="cls-2"><path class="cls-3" d="M62.24,73.78a15.72,15.72,0,0,1-.2,2.58,8.13,8.13,0,0,1-.59,2,3.71,3.71,0,0,1-1,1.33,2.09,2.09,0,0,1-1.34.47,1.92,1.92,0,0,1-1.49-.68,3.94,3.94,0,0,1-.84-1.78h0v7.92H55.5V67.71h1.26v2.17h0A4.5,4.5,0,0,1,57.59,68a1.86,1.86,0,0,1,1.56-.72,2,2,0,0,1,1.31.49,3.77,3.77,0,0,1,1,1.34,8.42,8.42,0,0,1,.6,2,15,15,0,0,1,.21,2.6m-1.34,0a15.06,15.06,0,0,0-.12-2,7.4,7.4,0,0,0-.37-1.6,3.13,3.13,0,0,0-.64-1.07,1.25,1.25,0,0,0-.92-.39,1.23,1.23,0,0,0-.91.39,3.15,3.15,0,0,0-.66,1.07,8,8,0,0,0-.39,1.6,15,15,0,0,0-.13,2,15.51,15.51,0,0,0,.13,2,7.65,7.65,0,0,0,.39,1.6A3.06,3.06,0,0,0,58,78.39a1.26,1.26,0,0,0,1.82,0,3.18,3.18,0,0,0,.64-1.06,7.13,7.13,0,0,0,.37-1.6,15.58,15.58,0,0,0,.12-2" transform="translate(0 0)"/><path class="cls-3" d="M70.11,73.78a13,13,0,0,1-.24,2.61,8,8,0,0,1-.67,2,3.57,3.57,0,0,1-1.07,1.32,2.44,2.44,0,0,1-2.85,0,3.78,3.78,0,0,1-1.07-1.32,8,8,0,0,1-.68-2,13.07,13.07,0,0,1-.23-2.61,14.38,14.38,0,0,1,.22-2.64,7.64,7.64,0,0,1,.66-2,3.68,3.68,0,0,1,1.07-1.32,2.43,2.43,0,0,1,1.45-.46,2.37,2.37,0,0,1,1.43.46A3.57,3.57,0,0,1,69.2,69.1a8,8,0,0,1,.67,2,13.49,13.49,0,0,1,.24,2.64m-1.34,0a13.76,13.76,0,0,0-.13-2,6.88,6.88,0,0,0-.38-1.59,3.08,3.08,0,0,0-.64-1.06,1.25,1.25,0,0,0-.92-.39,1.26,1.26,0,0,0-.92.39,2.68,2.68,0,0,0-.64,1.06,7.43,7.43,0,0,0-.38,1.59,15.42,15.42,0,0,0-.12,2,15,15,0,0,0,.12,2,7.79,7.79,0,0,0,.38,1.58,2.55,2.55,0,0,0,.64,1.06,1.32,1.32,0,0,0,1.85,0,2.77,2.77,0,0,0,.64-1.06,7.82,7.82,0,0,0,.37-1.58,13.39,13.39,0,0,0,.13-2" transform="translate(0 0)"/><rect class="cls-3" x="71.41" y="61.37" width="1.3" height="18.44"/><path class="cls-3" d="M78.6,79.8c0-.13,0-.29,0-.49s0-.4,0-.62,0-.43,0-.63v-.53h0c-.33,1.73-1.12,2.59-2.37,2.59a1.9,1.9,0,0,1-.82-.2,2,2,0,0,1-.75-.63A3.6,3.6,0,0,1,74,78.18a5.16,5.16,0,0,1-.22-1.62,5,5,0,0,1,.37-2.12,3.5,3.5,0,0,1,1-1.27,3,3,0,0,1,1.25-.62,5.42,5.42,0,0,1,1.29-.16h.77v-.63A4.45,4.45,0,0,0,78,69.44a1.46,1.46,0,0,0-1.28-.73,1.68,1.68,0,0,0-1,.36,3.5,3.5,0,0,0-.81.93l-.68-1a3.31,3.31,0,0,1,1.18-1.25,2.79,2.79,0,0,1,1.45-.43A2.26,2.26,0,0,1,79,68.56a8.09,8.09,0,0,1,.65,3.63v5c0,.16,0,.36,0,.61s0,.49,0,.74,0,.49,0,.71,0,.39,0,.52Zm-.15-6.14h-.79a3.72,3.72,0,0,0-.94.11,2,2,0,0,0-.84.41,2.32,2.32,0,0,0-.6.84A3.43,3.43,0,0,0,75,76.41a2.92,2.92,0,0,0,.45,1.83,1.3,1.3,0,0,0,1,.56,1.22,1.22,0,0,0,.93-.41,3,3,0,0,0,.61-1A6.43,6.43,0,0,0,78.35,76a12.36,12.36,0,0,0,.1-1.46Z" transform="translate(0 0)"/><path class="cls-3" d="M84,80a2.05,2.05,0,0,1-.65.1,1.47,1.47,0,0,1-1.45-.88,5.51,5.51,0,0,1-.42-2.34V69H80.21V67.71h1.25V64.37h1.28v3.34h1.74V69H82.74v7.59A3.66,3.66,0,0,0,83,78.2a.81.81,0,0,0,.77.5,1.24,1.24,0,0,0,.37-.06,1.86,1.86,0,0,0,.34-.13l.06,1.29A2.64,2.64,0,0,1,84,80" transform="translate(0 0)"/><path class="cls-3" d="M86.73,67.71v7.8c0,.37,0,.75,0,1.13a4.52,4.52,0,0,0,.22,1,2.12,2.12,0,0,0,.46.78,1.06,1.06,0,0,0,.81.31,1.32,1.32,0,0,0,.88-.33,2.75,2.75,0,0,0,.65-.9,6.61,6.61,0,0,0,.41-1.32,7.84,7.84,0,0,0,.15-1.55v-7h1.3v9c0,.26,0,.54,0,.84s0,.6,0,.88,0,.55,0,.79a3.39,3.39,0,0,0,0,.54H90.48c0-.31,0-.68-.06-1.12s0-.85,0-1.24h0a4.78,4.78,0,0,1-.91,2,1.93,1.93,0,0,1-1.57.77,1.9,1.9,0,0,1-1.27-.41,2.67,2.67,0,0,1-.74-1.09,6,6,0,0,1-.35-1.5c0-.55-.08-1.11-.08-1.68v-7.8Z" transform="translate(0 0)"/><polygon class="cls-3" points="92.8 79.8 92.8 78.39 96.88 69.1 93.12 69.1 93.12 67.71 98.24 67.71 98.24 69.07 94.18 78.41 98.26 78.41 98.26 79.8 92.8 79.8"/><path class="cls-3" d="M100.67,67.71v7.8c0,.37,0,.75,0,1.13a4.52,4.52,0,0,0,.22,1,2.12,2.12,0,0,0,.46.78,1.06,1.06,0,0,0,.81.31,1.32,1.32,0,0,0,.88-.33,2.75,2.75,0,0,0,.65-.9,6.61,6.61,0,0,0,.41-1.32,7.84,7.84,0,0,0,.15-1.55v-7h1.3v9c0,.26,0,.54,0,.84s0,.6,0,.88,0,.55,0,.79a3.39,3.39,0,0,0,0,.54h-1.27c0-.31,0-.68,0-1.12s0-.85,0-1.24h0a4.78,4.78,0,0,1-.91,2,2.07,2.07,0,0,1-2.85.36,2.66,2.66,0,0,1-.73-1.09,6,6,0,0,1-.35-1.5,15.48,15.48,0,0,1-.09-1.68v-7.8Z" transform="translate(0 0)"/><path class="cls-3" d="M109.33,68.09a1.94,1.94,0,0,1,1.6-.77,1.67,1.67,0,0,1,.91.23,2.1,2.1,0,0,1,.65.61,2.92,2.92,0,0,1,.41.89,8.89,8.89,0,0,1,.23,1h0a4.67,4.67,0,0,1,.33-1,3.47,3.47,0,0,1,.54-.89,2.43,2.43,0,0,1,.74-.62,1.91,1.91,0,0,1,1-.23,1.81,1.81,0,0,1,1.26.41,2.88,2.88,0,0,1,.74,1.09,6,6,0,0,1,.35,1.51,15.57,15.57,0,0,1,.09,1.67v7.8h-1.3V72c0-.38,0-.75-.05-1.14a4.56,4.56,0,0,0-.21-1,1.88,1.88,0,0,0-.46-.78,1.1,1.1,0,0,0-.82-.31,1.31,1.31,0,0,0-.86.33,2.73,2.73,0,0,0-.64.9,5.71,5.71,0,0,0-.39,1.32,8.59,8.59,0,0,0-.14,1.55v7H112V72a11.18,11.18,0,0,0,0-1.15,4.77,4.77,0,0,0-.19-1.06,1.83,1.83,0,0,0-.45-.77,1.11,1.11,0,0,0-.79-.29,1.28,1.28,0,0,0-.87.33,2.58,2.58,0,0,0-.63.9,5.25,5.25,0,0,0-.4,1.32,7.77,7.77,0,0,0-.14,1.55v7h-1.3v-9c0-.25,0-.54,0-.84s0-.59,0-.87,0-.55,0-.78,0-.42,0-.55h1.28c0,.3.05.68.06,1.12s0,.85,0,1.24h0a4.26,4.26,0,0,1,.83-2" transform="translate(0 0)"/><path class="cls-3" d="M123.9,79.8c0-.13,0-.29,0-.49s0-.4,0-.62,0-.43,0-.63v-.53h0c-.33,1.73-1.11,2.59-2.36,2.59a1.94,1.94,0,0,1-.83-.2,2.18,2.18,0,0,1-.75-.63,3.83,3.83,0,0,1-.55-1.11,5.49,5.49,0,0,1-.21-1.62,5,5,0,0,1,.37-2.12,3.4,3.4,0,0,1,1-1.27,2.94,2.94,0,0,1,1.25-.62,5.42,5.42,0,0,1,1.29-.16h.76v-.63a4.35,4.35,0,0,0-.47-2.32,1.44,1.44,0,0,0-1.28-.73,1.63,1.63,0,0,0-1,.36,3.18,3.18,0,0,0-.81.93l-.69-1a3.39,3.39,0,0,1,1.18-1.25,2.82,2.82,0,0,1,1.46-.43,2.26,2.26,0,0,1,2.18,1.24,8,8,0,0,1,.65,3.63v5c0,.16,0,.36,0,.61s0,.49,0,.74,0,.49,0,.71,0,.39,0,.52Zm-.16-6.14H123a3.85,3.85,0,0,0-.95.11,2,2,0,0,0-.84.41,2.45,2.45,0,0,0-.6.84,3.63,3.63,0,0,0-.23,1.39,2.92,2.92,0,0,0,.45,1.83,1.28,1.28,0,0,0,1,.56,1.26,1.26,0,0,0,.94-.41,3.16,3.16,0,0,0,.61-1,6.43,6.43,0,0,0,.32-1.39,10.54,10.54,0,0,0,.1-1.46Z" transform="translate(0 0)"/><path class="cls-3" d="M132.92,73.71a14.85,14.85,0,0,1-.21,2.59,8.28,8.28,0,0,1-.6,2,3.71,3.71,0,0,1-1,1.35,2,2,0,0,1-1.32.49,1.86,1.86,0,0,1-1.56-.72,4.64,4.64,0,0,1-.79-1.84h0V79.8h-1.27V61.37h1.3v8.41h0a3.94,3.94,0,0,1,.84-1.78,1.89,1.89,0,0,1,1.49-.68,2,2,0,0,1,1.33.47,3.78,3.78,0,0,1,1,1.32,7.84,7.84,0,0,1,.59,2,15.76,15.76,0,0,1,.2,2.59m-1.34,0a15.33,15.33,0,0,0-.12-2,7.22,7.22,0,0,0-.37-1.61,3,3,0,0,0-.64-1.07,1.26,1.26,0,0,0-1.82,0,2.79,2.79,0,0,0-.66,1.07,7.14,7.14,0,0,0-.4,1.61,16.39,16.39,0,0,0,0,4,7.09,7.09,0,0,0,.4,1.59,3,3,0,0,0,.65,1.06,1.23,1.23,0,0,0,.91.39,1.25,1.25,0,0,0,.92-.39,3.18,3.18,0,0,0,.64-1.06,7.16,7.16,0,0,0,.37-1.59,15.31,15.31,0,0,0,.12-2" transform="translate(0 0)"/><polygon class="cls-3" points="139.45 79.8 137.92 79.8 135.3 67.71 136.68 67.71 138.71 78.09 138.74 78.09 140.68 67.71 142.01 67.71 139.45 79.8"/><path class="cls-3" d="M143.39,74.1a11.76,11.76,0,0,0,.14,1.84,6.16,6.16,0,0,0,.41,1.46,2.66,2.66,0,0,0,.67,1,1.44,1.44,0,0,0,1,.35,1.41,1.41,0,0,0,1.15-.54,3.94,3.94,0,0,0,.67-1.29l1,.71a4.82,4.82,0,0,1-1.05,1.84,2.36,2.36,0,0,1-1.78.74A2.78,2.78,0,0,1,143,78.48a10,10,0,0,1-.91-4.7,13.32,13.32,0,0,1,.24-2.61,7.25,7.25,0,0,1,.68-2,3.72,3.72,0,0,1,1.08-1.33,2.46,2.46,0,0,1,2.88,0,3.33,3.33,0,0,1,1,1.27,6.83,6.83,0,0,1,.54,1.88,15,15,0,0,1,.17,2.29v.88Zm4-1.35a7.69,7.69,0,0,0-.46-2.93,1.5,1.5,0,0,0-1.42-1.11,1.26,1.26,0,0,0-1,.42,3.41,3.41,0,0,0-.63,1.05,5.79,5.79,0,0,0-.36,1.33,8.7,8.7,0,0,0-.11,1.24Z" transform="translate(0 0)"/><path class="cls-3" d="M155.11,79.8V77.63h0a4.64,4.64,0,0,1-.79,1.83,1.83,1.83,0,0,1-1.55.73,2,2,0,0,1-1.32-.49,3.62,3.62,0,0,1-1-1.35,8.74,8.74,0,0,1-.6-2,14.85,14.85,0,0,1-.21-2.59,15.76,15.76,0,0,1,.2-2.59,8.27,8.27,0,0,1,.58-2,3.66,3.66,0,0,1,1-1.32,2,2,0,0,1,1.33-.47,1.93,1.93,0,0,1,1.49.67,3.49,3.49,0,0,1,.83,1.76h0V61.37h1.3V79.8Zm0-6a13.76,13.76,0,0,0-.13-2,7.65,7.65,0,0,0-.39-1.6,3.1,3.1,0,0,0-.66-1.06,1.27,1.27,0,0,0-.91-.39,1.23,1.23,0,0,0-.91.39,2.93,2.93,0,0,0-.64,1.06,7.1,7.1,0,0,0-.38,1.6,15.42,15.42,0,0,0-.12,2,15.22,15.22,0,0,0,.12,2,7.14,7.14,0,0,0,.38,1.59,3,3,0,0,0,.64,1.08,1.23,1.23,0,0,0,.91.39,1.25,1.25,0,0,0,.92-.39,3.26,3.26,0,0,0,.65-1.08,7.71,7.71,0,0,0,.39-1.59,13.58,13.58,0,0,0,.13-2" transform="translate(0 0)"/><path class="cls-3" d="M164.26,73.78a13.85,13.85,0,0,1-.23,2.61,8,8,0,0,1-.67,2,3.68,3.68,0,0,1-1.07,1.32,2.39,2.39,0,0,1-1.43.46,2.32,2.32,0,0,1-1.42-.46,3.68,3.68,0,0,1-1.07-1.32,7.26,7.26,0,0,1-.68-2,13,13,0,0,1-.24-2.61,14.34,14.34,0,0,1,.23-2.64,7.64,7.64,0,0,1,.66-2,3.48,3.48,0,0,1,1.07-1.32,2.48,2.48,0,0,1,2.88,0,3.68,3.68,0,0,1,1.07,1.32,8,8,0,0,1,.67,2,14.34,14.34,0,0,1,.23,2.64m-1.34,0a15.42,15.42,0,0,0-.12-2,7.39,7.39,0,0,0-.39-1.59,2.93,2.93,0,0,0-.64-1.06,1.23,1.23,0,0,0-.91-.39,1.27,1.27,0,0,0-.93.39,2.93,2.93,0,0,0-.64,1.06,7.47,7.47,0,0,0-.37,1.59,13.76,13.76,0,0,0-.13,2,13.39,13.39,0,0,0,.13,2,7.82,7.82,0,0,0,.37,1.58,2.77,2.77,0,0,0,.64,1.06,1.32,1.32,0,0,0,1.85,0,2.55,2.55,0,0,0,.64-1.06,7.79,7.79,0,0,0,.38-1.58,15,15,0,0,0,.12-2" transform="translate(0 0)"/><path class="cls-3" d="M168.16,80a2,2,0,0,1-.65.1,1.47,1.47,0,0,1-1.44-.88,5.34,5.34,0,0,1-.43-2.34V69h-1.28V67.71h1.26V64.37h1.28v3.34h1.73V69H166.9v7.59a3.66,3.66,0,0,0,.26,1.59.8.8,0,0,0,.77.5,1.29,1.29,0,0,0,.37-.06,1.75,1.75,0,0,0,.33-.13l.06,1.29a2.42,2.42,0,0,1-.53.22" transform="translate(0 0)"/><path class="cls-3" d="M171.36,64a1.34,1.34,0,0,1-.26.84.74.74,0,0,1-1.23,0,1.39,1.39,0,0,1-.24-.84,1.42,1.42,0,0,1,.24-.83.74.74,0,0,1,.62-.34.73.73,0,0,1,.62.34,1.36,1.36,0,0,1,.25.83m-1.52,3.71h1.3V79.8h-1.3Z" transform="translate(0 0)"/><path class="cls-3" d="M177.58,79.8V72c0-.38,0-.75-.05-1.14a4.08,4.08,0,0,0-.21-1,2,2,0,0,0-.48-.78,1,1,0,0,0-.79-.31,1.32,1.32,0,0,0-.88.33,2.61,2.61,0,0,0-.65.9,5.25,5.25,0,0,0-.41,1.32,7.76,7.76,0,0,0-.15,1.55v7h-1.3v-9c0-.25,0-.53,0-.84s0-.59,0-.87,0-.55,0-.78,0-.42,0-.55h1.26c0,.31,0,.68.06,1.12s0,.85,0,1.24h0a4.75,4.75,0,0,1,.9-2,2,2,0,0,1,1.58-.76,1.87,1.87,0,0,1,1.27.41,2.67,2.67,0,0,1,.74,1.09,6,6,0,0,1,.34,1.51,15.71,15.71,0,0,1,.09,1.67v7.8Z" transform="translate(0 0)"/><path class="cls-4" d="M238.07,21.6A3.7,3.7,0,0,1,239.48,23,3.75,3.75,0,0,1,240,25a3.8,3.8,0,0,1-.52,2,3.85,3.85,0,0,1-3.39,2,3.7,3.7,0,0,1-2-.53A3.88,3.88,0,0,1,232.22,25a3.89,3.89,0,0,1,1.92-3.38,3.72,3.72,0,0,1,2-.54,3.77,3.77,0,0,1,2,.53m-.28,6.27A3.37,3.37,0,0,0,239,26.64a3.33,3.33,0,0,0,.44-1.67A3.21,3.21,0,0,0,239,23.3a3.3,3.3,0,0,0-2.91-1.65,3.33,3.33,0,0,0-1.7.45,3.37,3.37,0,0,0-1.21,1.22,3.24,3.24,0,0,0-.45,1.67,3.28,3.28,0,0,0,.44,1.67,3.34,3.34,0,0,0,1.21,1.21,3.24,3.24,0,0,0,1.69.45,3.3,3.3,0,0,0,1.7-.45M237.57,25a1.11,1.11,0,0,1-.53.47l.82,1.24h-1l-.6-1.08h-.85v1.08h-.83V23h1.59a1.71,1.71,0,0,1,1.13.34,1.18,1.18,0,0,1,.41,1,1.34,1.34,0,0,1-.19.74m-2.11,0h.76a.82.82,0,0,0,.55-.17.63.63,0,0,0,.19-.49.6.6,0,0,0-.19-.49.82.82,0,0,0-.55-.17h-.76Z" transform="translate(0 0)"/><path class="cls-4" d="M123,39.75a18.53,18.53,0,1,1-37,0,18.53,18.53,0,1,1,37.05,0m-29.71,0c0,7,4.7,11.85,11.19,11.85s11.19-4.86,11.19-11.85-4.81-11.84-11.19-11.84S93.24,32.82,93.24,39.75" transform="translate(0 0)"/><polygon class="cls-4" points="133.31 51.1 148.56 51.1 148.56 57.76 126.19 57.76 126.19 21.74 133.31 21.74 133.31 51.1"/><rect class="cls-4" x="152.28" y="21.74" width="7.12" height="36.02"/><polygon class="cls-4" points="196.45 21.74 180.93 58.42 178.56 58.42 162.99 21.74 171.06 21.74 179.77 43.57 188.43 21.74 196.45 21.74"/><polygon class="cls-4" points="217.68 43.57 217.68 57.76 210.55 57.76 210.55 43.63 198.52 21.74 206.44 21.74 214.14 36.04 221.79 21.74 229.66 21.74 217.68 43.57"/><path class="cls-4" d="M79.94,24.89q3.59,3.22,3.59,9.12,0,6.15-3.59,9.55T69.81,47H62.23V57.52H55.59V21.67H69.81q6.54,0,10.13,3.22M75.23,39.24a6.19,6.19,0,0,0,2-5,6,6,0,0,0-2-4.92,8.93,8.93,0,0,0-5.77-1.64H62.23V40.93h7.23a8.77,8.77,0,0,0,5.77-1.69" transform="translate(0 0)"/><path class="cls-5" d="M25.61,0C23.76,8.27,13.28,24.38,12.17,26.24c-.12.2,0,.47,0,1.1,2.44-1.93,6-3,8.72-2.35l.48,0A1.72,1.72,0,0,1,23,27.13a12.2,12.2,0,0,1-.51,1.37c-.09.19-.16.38-.25.57a1.66,1.66,0,0,1,.19.57c.53,3.73.82,10.68-1.41,15.1,2.93,3.51,7.37,7,10,10.65a13.22,13.22,0,0,1,2.36,9.49l-.09.51c-.08.33-.17.68-.28,1.1.53-.2,1-.42,1.55-.67A19.81,19.81,0,0,0,45.76,48v-.09a18.44,18.44,0,0,0-.21-2.7c-.1-.61-.23-1.22-.34-1.83-.17-.88-.36-1.76-.61-2.63-1.15-4-3.25-7.54-5.29-11.13C37,25.59,27.62,7.53,25.61,0" transform="translate(0 0)"/></g><g class="cls-6"><rect class="cls-7" y="22.68" width="32.31" height="48.96"/></g></g></g></svg>